<svg width="250" height="50" viewBox="0 0 250 50" fill="none" xmlns="http://www.w3.org/2000/svg">
<rect width="250" height="50" rx="12" fill="url(#paint0_linear_5_971)"/>
<path d="M100.32 31.84H90.72V33.24H88.14C88.2 32.76 88.22 32.28 88.22 31.52V20.06C88.22 19.3 88.2 18.92 88.14 18.38C88.62 18.42 89.04 18.44 89.84 18.44H101.2C102.06 18.44 102.42 18.42 102.88 18.38C102.84 18.9 102.82 19.3 102.82 20.04V31.48C102.82 32.22 102.84 32.76 102.9 33.22H100.32V31.84ZM100.32 29.56V20.7H90.72V29.56H100.32ZM121.88 19.8L122.56 20.58C122.38 20.84 122.28 21.08 122.06 21.78C120.88 25.34 119.92 27.12 118.04 29.34C116.26 31.38 113.8 33.14 110.92 34.4C110.4 33.46 110.04 33.02 109.22 32.3C114.46 30.3 117.84 26.72 119.44 21.52L113.42 21.6C112.3 23.44 110.4 25.52 108.74 26.74C108.14 25.92 107.84 25.66 106.8 25.02C108.96 23.58 110.56 21.78 111.98 19.22C112.58 18.14 112.94 17.2 113 16.56L115.74 17.12C115.6 17.3 115.58 17.34 115.4 17.72C115.24 18.08 115.06 18.48 114.86 18.88C114.76 19.06 114.76 19.08 114.72 19.16L114.56 19.46C114.8 19.44 115.12 19.42 115.52 19.42L119.9 19.36C120.44 19.36 120.78 19.34 120.94 19.32C120.48 18.32 120.12 17.68 119.48 16.82L120.96 16.32C121.74 17.36 122.2 18.16 122.74 19.48L121.88 19.8ZM125.34 18.58L123.86 19.14C123.38 17.96 122.8 16.94 122.14 16.04L123.58 15.54C124.4 16.6 124.86 17.4 125.34 18.58ZM139.589 16.76L141.889 18.36C141.549 18.66 141.449 18.74 141.149 19.06C139.649 20.62 138.149 21.92 136.429 23.18V31.72C136.429 32.82 136.449 33.4 136.529 33.94H133.729C133.829 33.36 133.849 32.96 133.849 31.78V24.74C131.509 26.14 130.389 26.66 126.709 27.98C126.289 26.94 126.069 26.6 125.369 25.7C129.329 24.62 132.689 22.96 135.869 20.5C137.649 19.12 139.009 17.74 139.589 16.76ZM146.749 20.16L148.409 18.18C150.789 19.66 152.029 20.58 153.569 22.04L151.849 24.22C150.249 22.52 148.609 21.2 146.749 20.16ZM147.449 33.36L146.709 30.6C148.429 30.5 150.809 29.92 152.629 29.12C155.129 28.04 156.989 26.5 158.569 24.22C159.449 22.94 160.009 21.84 160.609 20.22C161.389 21.16 161.709 21.46 162.729 22.18C161.029 25.84 159.129 28.2 156.389 30.02C154.349 31.38 151.869 32.36 148.769 33.02C147.969 33.18 147.909 33.2 147.449 33.36Z" fill="white"/>
<defs>
<linearGradient id="paint0_linear_5_971" x1="-1.86265e-06" y1="25" x2="250" y2="25" gradientUnits="userSpaceOnUse">
<stop stop-color="#A3A6E1"/>
<stop offset="1" stop-color="#FFABD9"/>
</linearGradient>
</defs>
</svg>
