<svg width="196" height="132" viewBox="0 0 196 132" fill="none" xmlns="http://www.w3.org/2000/svg">
<path d="M7.3 58.02C8.82 57.94 9.86 57.6 10.42 57C10.98 56.36 11.28 55.5 11.32 54.42C11.4 53.3 11.44 52.04 11.44 50.64V24.72C11.44 23.92 11.46 23.16 11.5 22.44C11.54 21.68 11.58 21 11.62 20.4C10.9 20.44 10.18 20.48 9.46 20.52C8.74 20.56 8.02 20.6 7.3 20.64V18C9.42 17.96 11.6 17.94 13.84 17.94C16.08 17.9 18.36 17.88 20.68 17.88C24.56 17.88 27.82 18.32 30.46 19.2C33.1 20.08 35.12 21.38 36.52 23.1C37.92 24.82 38.68 26.96 38.8 29.52C38.88 31.08 38.64 32.72 38.08 34.44C37.56 36.12 36.56 37.72 35.08 39.24C33.64 40.72 31.6 41.92 28.96 42.84C26.32 43.76 22.94 44.22 18.82 44.22C18.66 44.22 18.36 44.22 17.92 44.22C17.48 44.22 17.06 44.2 16.66 44.16V52.86C16.66 53.94 16.64 54.88 16.6 55.68C16.6 56.44 16.56 57.08 16.48 57.6C17.12 57.56 17.74 57.52 18.34 57.48C18.94 57.44 19.54 57.42 20.14 57.42C20.78 57.38 21.4 57.34 22 57.3V60H7.3V58.02ZM16.66 41.7C17.42 41.78 18.06 41.84 18.58 41.88C19.14 41.88 19.8 41.88 20.56 41.88C22.84 41.88 24.92 41.44 26.8 40.56C28.68 39.64 30.18 38.34 31.3 36.66C32.42 34.98 32.98 32.98 32.98 30.66C32.98 28.78 32.68 27.18 32.08 25.86C31.48 24.5 30.62 23.42 29.5 22.62C28.42 21.78 27.12 21.18 25.6 20.82C24.08 20.42 22.4 20.22 20.56 20.22C19.16 20.22 18.18 20.52 17.62 21.12C17.1 21.72 16.8 22.56 16.72 23.64C16.68 24.68 16.66 25.92 16.66 27.36V41.7ZM49.0267 58.2C50.2667 58.2 51.1267 57.9 51.6067 57.3C52.0867 56.66 52.3667 55.8 52.4467 54.72C52.5267 53.6 52.5667 52.32 52.5667 50.88V37.2C52.5667 36.56 52.5867 35.96 52.6267 35.4C52.6667 34.8 52.7267 34.1 52.8067 33.3C52.0867 33.34 51.3667 33.38 50.6467 33.42C49.9667 33.46 49.2667 33.5 48.5467 33.54V31.02C50.3067 31.02 51.6667 30.94 52.6267 30.78C53.5867 30.62 54.3067 30.42 54.7867 30.18C55.3067 29.94 55.7067 29.68 55.9867 29.4H57.7267V53.64C57.7267 54.44 57.7067 55.16 57.6667 55.8C57.6667 56.4 57.6067 57.04 57.4867 57.72C58.1267 57.68 58.7467 57.66 59.3467 57.66C59.9867 57.62 60.6267 57.58 61.2667 57.54V60H49.0267V58.2ZM54.8467 23.46C54.0067 23.46 53.2667 23.12 52.6267 22.44C51.9867 21.76 51.6667 20.92 51.6667 19.92C51.6667 18.92 51.9867 18.08 52.6267 17.4C53.3067 16.68 54.0667 16.32 54.9067 16.32C55.8267 16.32 56.5867 16.68 57.1867 17.4C57.8267 18.08 58.1467 18.92 58.1467 19.92C58.1467 20.92 57.8067 21.76 57.1267 22.44C56.4867 23.12 55.7267 23.46 54.8467 23.46ZM91.8372 60.96C87.8372 60.96 84.2972 60.12 81.2172 58.44C78.1372 56.76 75.7372 54.34 74.0172 51.18C72.2972 48.02 71.4372 44.26 71.4372 39.9C71.4372 37.06 71.8572 34.3 72.6972 31.62C73.5772 28.9 74.8772 26.44 76.5972 24.24C78.3572 22.04 80.5372 20.3 83.1372 19.02C85.7772 17.7 88.8372 17.04 92.3172 17.04C93.7572 17.04 95.2172 17.18 96.6972 17.46C98.1772 17.7 99.5972 18.08 100.957 18.6C102.357 19.08 103.617 19.66 104.737 20.34L104.497 17.46H107.797V31.2H105.637C105.477 28.68 104.797 26.56 103.597 24.84C102.437 23.08 100.917 21.74 99.0372 20.82C97.1572 19.9 95.0572 19.44 92.7372 19.44C90.6172 19.44 88.6172 19.92 86.7372 20.88C84.8972 21.8 83.2572 23.12 81.8172 24.84C80.4172 26.52 79.3172 28.52 78.5172 30.84C77.7172 33.16 77.3172 35.72 77.3172 38.52C77.3172 42.28 77.9972 45.64 79.3572 48.6C80.7172 51.56 82.5972 53.88 84.9972 55.56C87.4372 57.24 90.2372 58.08 93.3972 58.08C94.4772 58.08 95.5972 57.98 96.7572 57.78C97.9572 57.58 99.1372 57.26 100.297 56.82C101.497 56.34 102.617 55.76 103.657 55.08V47.76C103.657 46.8 103.657 45.84 103.657 44.88C103.657 43.88 103.657 42.9 103.657 41.94C102.977 41.98 102.277 42.02 101.557 42.06C100.837 42.1 100.137 42.14 99.4572 42.18V39.54H113.017V41.52C111.897 41.52 111.037 41.82 110.437 42.42C109.837 42.98 109.417 43.68 109.177 44.52C108.937 45.32 108.797 46.12 108.757 46.92C108.717 47.68 108.697 48.26 108.697 48.66V57.84H107.077C106.437 57.84 105.557 57.96 104.437 58.2C103.317 58.44 102.037 58.84 100.597 59.4C99.3572 59.88 97.9172 60.26 96.2772 60.54C94.6372 60.82 93.1572 60.96 91.8372 60.96ZM123.562 60V58.02C125.082 57.94 126.122 57.6 126.682 57C127.242 56.36 127.542 55.5 127.582 54.42C127.662 53.3 127.702 52.04 127.702 50.64V24.72C127.702 23.92 127.722 23.16 127.762 22.44C127.802 21.68 127.842 21 127.882 20.4C127.162 20.44 126.442 20.48 125.722 20.52C125.002 20.56 124.282 20.6 123.562 20.64V18H137.062V19.98C135.582 20.02 134.542 20.36 133.942 21C133.382 21.64 133.062 22.5 132.982 23.58C132.942 24.66 132.922 25.92 132.922 27.36V53.1C132.922 54.18 132.902 55.1 132.862 55.86C132.862 56.62 132.822 57.26 132.742 57.78L143.962 57.6C146.482 57.56 148.382 56.76 149.662 55.2C150.982 53.64 151.642 51.1 151.642 47.58H153.682L153.322 60H123.562ZM166.744 76.26C165.504 76.26 164.444 75.96 163.564 75.36C162.684 74.76 162.244 73.84 162.244 72.6C162.244 71.88 162.484 71.22 162.964 70.62C163.444 70.02 164.064 69.72 164.824 69.72C165.784 69.68 166.424 69.98 166.744 70.62C167.104 71.26 167.284 71.82 167.284 72.3C167.284 72.42 167.284 72.54 167.284 72.66C167.284 72.82 167.264 72.98 167.224 73.14C167.344 73.22 167.564 73.26 167.884 73.26C168.364 73.26 168.884 73.06 169.444 72.66C170.004 72.26 170.504 71.68 170.944 70.92C171.464 70.04 172.064 68.72 172.744 66.96C173.464 65.2 174.264 63.1 175.144 60.66L165.784 40.62C164.744 38.38 163.984 36.6 163.504 35.28C163.064 33.96 162.764 32.98 162.604 32.34L159.724 32.46V30H172.144V31.8H171.904C170.224 31.92 169.304 32.56 169.144 33.72C168.984 34.84 169.444 36.56 170.524 38.88L177.544 53.94C178.464 51.38 179.344 48.86 180.184 46.38C181.024 43.86 181.864 41.36 182.704 38.88C183.024 38 183.344 37.1 183.664 36.18C184.024 35.22 184.364 34.38 184.684 33.66C185.044 32.9 185.364 32.42 185.644 32.22L181.504 32.46V30H190.924V31.8C189.444 32.36 188.324 33.3 187.564 34.62C186.844 35.9 186.104 37.56 185.344 39.6L177.844 60.54C176.644 63.9 175.544 66.74 174.544 69.06C173.544 71.42 172.444 73.2 171.244 74.4C170.044 75.64 168.544 76.26 166.744 76.26Z" fill="#EC87EF"/>
<path d="M23.39 106.39H19.22C19.22 110.2 18.68 113.2 17.51 115.81C16.22 118.63 14.6 120.43 11.6 122.44L11.27 121.99C13.94 119.68 15.17 118 16.07 115.24C17 112.48 17.27 110.02 17.27 104.56C17.27 101.98 17.24 100.21 17.12 98.17C18.23 98.77 18.56 98.95 19.55 99.58C21.02 99.1 22.64 98.38 24.14 97.54C24.92 97.12 25.22 96.91 25.91 96.34C28.1 97.57 28.64 97.96 28.64 98.32C28.64 98.44 28.4 98.53 28.13 98.53C28.1 98.53 27.44 98.5 26.93 98.47C23.57 99.49 22.34 99.76 19.22 100.3C19.22 100.96 19.22 102.76 19.22 105.7H25.55C26.45 104.68 26.45 104.68 27.29 103.75C28.28 104.65 28.61 104.98 29.6 106.06C29.66 106.15 29.69 106.18 29.69 106.24C29.69 106.33 29.6 106.39 29.48 106.39H25.37V111.07C25.37 112.12 25.4 115.93 25.49 122.5C25.46 122.71 25.4 122.77 25.16 122.83C24.89 122.89 24.11 122.95 23.75 122.95C23.45 122.95 23.33 122.89 23.27 122.65L23.39 111.07V106.39ZM9.86 99.79H12.32C12.95 99.01 13.16 98.77 13.82 98.05C14.78 98.86 15.05 99.1 16.01 100C16.1 100.09 16.13 100.18 16.13 100.24C16.13 100.36 16.01 100.48 15.86 100.48H5.57C4.46 100.48 3.86 100.51 2.69 100.6L2.48 99.58C3.38 99.7 4.79 99.79 5.57 99.79H7.97C7.97 99.64 7.97 99.49 7.97 99.43C7.97 98.05 7.91 96.91 7.76 96.01C10.34 96.25 11.03 96.37 11.03 96.64C11.03 96.85 10.82 96.94 9.86 97.3V99.79ZM10.07 106.57H12.86C13.52 105.82 13.73 105.61 14.33 104.86C15.29 105.7 15.59 105.94 16.49 106.81C16.52 106.9 16.55 106.99 16.55 107.02C16.55 107.14 16.43 107.26 16.31 107.26H4.64C4.64 107.26 3.74 107.32 1.94 107.41L1.79 106.39C2.9 106.51 4.04 106.57 4.67 106.57H9.44C10.28 104.86 10.91 102.91 11.3 100.81C13.52 101.35 14.15 101.59 14.15 101.86C14.15 102.04 13.88 102.16 13.1 102.28C11.45 104.89 10.85 105.7 10.07 106.57ZM5.3 111.07H7.97C7.94 109.45 7.94 109.03 7.85 107.89C10.25 108.1 10.79 108.22 10.79 108.55C10.79 108.76 10.55 108.88 9.77 109.09V111.07H12.56C13.19 110.32 13.37 110.08 14 109.36C14.96 110.14 15.26 110.41 16.19 111.31C16.28 111.43 16.31 111.49 16.31 111.55C16.31 111.67 16.19 111.76 16.04 111.76H9.77V113.02C11.36 113.41 12.68 113.89 13.49 114.34C13.97 114.64 14.18 114.97 14.18 115.54C14.18 116.02 13.97 116.8 13.76 117.01C13.73 117.07 13.64 117.1 13.55 117.1C13.34 117.1 13.28 117.04 12.98 116.56C12.05 115.09 11.3 114.37 9.77 113.56C9.77 115.45 9.8 117.76 9.86 122.41C9.86 122.68 9.8 122.77 9.59 122.83C9.38 122.89 8.78 122.95 8.39 122.95C8.03 122.95 7.91 122.86 7.91 122.59C7.97 121.3 7.97 121.3 8 118.09C8.03 115.9 8.03 115.9 8.06 114.73C6.23 117.25 4.7 118.72 1.97 120.61L1.7 120.28C4.55 117.46 6.26 114.97 7.58 111.76H5.33C4.52 111.76 3.8 111.79 2.27 111.91L2.09 110.92C2.63 110.98 2.63 110.98 5.3 111.07ZM4.49 101.08L4.73 100.87C6.77 102.82 7.46 103.69 7.46 104.32C7.46 104.59 7.31 105.1 7.16 105.49C6.95 105.94 6.5 106.36 6.2 106.36C5.96 106.36 5.87 106.09 5.75 105.19C5.57 103.93 5.27 102.91 4.49 101.08ZM54.23 113.14H52.58C52.34 115.54 51.92 116.86 50.9 118.33C49.58 120.28 47.78 121.54 45.26 122.32C44.09 122.68 43.28 122.83 41.27 123.1L41.21 122.65C45.14 121.6 46.82 120.73 48.35 118.96C49.73 117.4 50.51 115.42 50.63 113.14H49.4V113.71C49.4 114.13 49.19 114.22 48.17 114.22C47.48 114.22 47.39 114.19 47.39 113.86C47.48 111.07 47.51 109.09 47.51 101.86C47.51 99.43 47.48 98.29 47.36 96.31C48.44 96.91 48.77 97.12 49.67 97.81H57.17C57.71 97.18 57.86 97 58.43 96.43C59.18 97 59.42 97.18 60.14 97.78C60.35 97.96 60.44 98.08 60.44 98.17C60.44 98.38 60.11 98.68 59.45 99.01C59.45 108.94 59.48 110.86 59.57 113.77C59.57 114.13 59.24 114.25 58.22 114.25C57.59 114.25 57.5 114.22 57.5 113.89V113.14H56.06V120.28C56.06 120.76 56.12 120.79 58.31 120.79C59.66 120.79 59.87 120.73 60.08 120.34C60.35 119.86 60.65 118.66 61.43 115.03H61.88L61.73 119.53C61.73 119.62 61.73 119.68 61.73 119.71C61.73 120.1 61.82 120.25 62.12 120.37C62.84 120.7 62.96 120.79 62.96 121.24C62.96 121.78 62.63 122.05 61.7 122.23C61.19 122.32 59.66 122.38 57.5 122.38C54.5 122.38 54.26 122.26 54.2 120.88C54.23 119.32 54.23 119.26 54.23 118.81V113.14ZM57.5 102.67V98.5H49.4V102.67H57.5ZM57.5 103.36H49.4V107.44H57.5V103.36ZM57.5 108.13H49.4V112.45H57.5V108.13ZM41.9 102.55H43.28C43.91 101.74 44.09 101.5 44.75 100.72C45.71 101.59 45.98 101.89 46.85 102.85C46.91 102.94 46.94 103.03 46.94 103.09C46.94 103.18 46.82 103.24 46.64 103.24H41.9C41.9 105.25 41.84 106.66 41.69 108.73H43.34C43.97 107.89 44.15 107.65 44.81 106.87C45.8 107.77 46.07 108.04 46.97 108.97C47.03 109.06 47.09 109.18 47.09 109.24C47.09 109.33 46.97 109.42 46.82 109.42H41.63C41.51 110.56 41.42 111.25 41.18 112.27C42.68 112.96 43.97 113.71 44.84 114.4C45.77 115.12 46.1 115.69 46.1 116.59C46.1 117.61 45.77 118.39 45.35 118.39C45.08 118.39 45.02 118.33 44.42 117.19C43.64 115.63 42.35 113.89 41.06 112.72C40.7 114.07 40.37 114.97 39.8 116.08C38.6 118.48 37.28 119.95 34.64 121.9L34.28 121.54C36.56 119.17 37.7 117.4 38.66 114.7C39.23 113.08 39.59 111.49 39.77 109.42H37.01C36.35 109.42 35.87 109.48 35.15 109.6L34.91 108.49C35.78 108.7 36.14 108.73 37.01 108.73H39.83C39.95 106.87 39.98 105.49 40.01 103.24H37.67C36.8 103.24 36.26 103.27 35.69 103.39L35.51 102.28C36.32 102.49 36.8 102.55 37.67 102.55H40.01C39.98 101.59 39.98 100.84 39.98 100.33C39.98 97.57 39.95 97.18 39.8 95.92C42.68 96.25 43.04 96.31 43.04 96.61C43.04 96.82 42.86 96.94 41.96 97.27C41.96 99.07 41.96 99.07 41.9 102.55ZM93.41 112.72H80.51C77.48 117.19 77.15 117.67 75.38 119.68C80.06 119.62 84.62 119.38 87.59 119.05C86.27 117.16 85.22 115.9 83.69 114.4L83.93 114.1C85.91 115.24 87.95 116.77 89.93 118.6C90.71 119.35 91.07 119.98 91.07 120.7C91.07 121.24 90.83 122.17 90.59 122.56C90.47 122.74 90.26 122.86 90.08 122.86C89.87 122.86 89.75 122.74 89.57 122.41C89.03 121.36 88.4 120.22 88.01 119.68C83.21 120.67 76.7 121.6 71.9 121.99C71.6 122.89 71.51 123.04 71.27 123.04C71.09 123.04 71.03 122.98 70.91 122.47C70.73 121.66 70.46 120.43 70.31 119.59C71.03 119.62 71.03 119.62 72.74 119.68C73.25 119.71 73.64 119.71 74 119.71C74.09 119.71 74.3 119.71 74.54 119.68C75.86 117.4 76.22 116.56 77.75 112.72H71.66C70.73 112.72 70.34 112.75 69.53 112.9L69.29 111.79C70.13 111.97 70.64 112.03 71.66 112.03H88.97C89.69 111.07 89.9 110.8 90.62 109.93C91.91 110.89 92.3 111.22 93.53 112.24C93.59 112.36 93.68 112.48 93.68 112.51C93.68 112.63 93.56 112.72 93.41 112.72ZM67.85 109.93L67.55 109.51C69.29 108.37 70.25 107.59 71.96 105.94C74.75 103.21 76.82 100.63 78.56 97.84C79.07 96.97 79.28 96.55 79.55 95.65C82.85 96.4 83.09 96.49 83.09 96.73C83.09 97 82.61 97.24 81.95 97.27C83.81 100.15 85.55 101.86 88.46 103.75C90.86 105.28 92.54 105.97 95.69 106.75V107.05C94.46 107.38 94.1 107.8 93.53 109.51C91.1 108.31 88.94 106.75 86.84 104.71C85.43 103.33 83.87 101.5 82.7 99.79C82.13 98.98 81.92 98.62 81.44 97.54C79.64 100.33 77.63 102.7 74.96 105.07C72.68 107.11 70.73 108.43 67.85 109.93ZM73.91 107.86L73.7 106.81C74.45 106.96 75.38 107.05 76.13 107.05H83.69C84.41 106.15 84.62 105.88 85.37 105.04C86.57 106 86.96 106.3 88.13 107.29C88.25 107.38 88.31 107.47 88.31 107.56C88.31 107.68 88.19 107.74 87.92 107.74H75.98C75.47 107.74 75.02 107.77 73.91 107.86ZM108.11 102.7V103.18C108.08 103.57 107.84 103.66 106.85 103.66C106.25 103.66 106.1 103.6 106.04 103.3C106.1 100.03 106.1 99.49 106.1 98.62C106.1 97.63 106.1 97.3 106.01 96.4C107.03 96.94 107.36 97.12 108.44 97.72H120.77C121.37 97.12 121.55 96.94 122.15 96.4C122.9 97 123.14 97.18 123.83 97.78C123.98 97.96 124.04 98.05 124.04 98.17C124.04 98.35 124.04 98.35 123.05 98.89C123.05 101.32 123.05 101.53 123.14 103C123.14 103.27 123.05 103.36 122.84 103.45C122.63 103.51 121.94 103.6 121.55 103.6C121.25 103.6 121.13 103.51 121.07 103.3V102.7H108.11ZM108.11 98.41V102.01H121.07V98.41H108.11ZM101.33 123.43L101.18 122.98C103.79 121.96 105.23 121.27 107.18 120.07C108.71 119.11 109.16 118.75 109.64 118.15C110.72 118.54 111.98 119.08 112.34 119.26C112.52 119.38 112.61 119.47 112.61 119.59C112.61 119.8 112.34 119.92 111.89 119.92C111.83 119.92 111.44 119.92 111.17 119.92C108.35 121.57 106.01 122.38 101.33 123.43ZM117.38 118.66L117.53 118.24C121.01 118.96 123.8 119.74 124.67 120.19C125.75 120.73 126.2 121.48 126.2 122.62C126.2 123.19 126.05 123.46 125.72 123.46C125.51 123.46 125.3 123.34 124.85 122.98C122.51 121.18 120.92 120.25 117.38 118.66ZM106.94 116.98V117.79C106.91 118.15 106.55 118.27 105.38 118.27C104.9 118.27 104.81 118.21 104.78 117.85C104.84 115.09 104.87 113.62 104.87 110.62C104.87 107.53 104.84 105.82 104.81 103.72C105.92 104.32 106.28 104.5 107.45 105.22H121.73C122.21 104.62 122.36 104.44 122.9 103.93C123.74 104.53 124.01 104.71 124.82 105.4C124.97 105.52 125.03 105.61 125.03 105.73C125.03 105.94 124.91 106.06 124.04 106.54C124.04 111.49 124.07 113.92 124.13 117.61C124.1 118.06 123.86 118.21 122.99 118.21C122.75 118.24 122.57 118.24 122.54 118.24C122.51 118.24 122.48 118.24 122.45 118.24C122.12 118.24 122 118.15 121.97 117.85V116.98H106.94ZM106.94 108.85H121.97V105.91H106.94V108.85ZM121.97 109.54H106.94V112.6H121.97V109.54ZM121.97 113.29H106.94V116.29H121.97V113.29ZM140.3 97.45H145.76C146.3 96.7 146.48 96.49 147.05 95.86C147.89 96.43 148.16 96.61 148.94 97.18C149.12 97.33 149.21 97.42 149.21 97.54C149.21 97.72 148.94 97.93 148.31 98.29C149.33 99.64 149.72 100.12 150.56 101.05C152.3 98.41 152.48 98.11 153.26 96.34C153.83 96.58 154.25 96.79 154.52 96.91C155.6 97.39 155.93 97.63 155.93 97.96C155.93 98.17 155.66 98.32 155.27 98.32C155.06 98.32 154.82 98.32 154.55 98.29C153.02 99.76 152.42 100.27 150.89 101.38C151.94 102.46 152.66 103.03 153.8 103.84C155.42 101.68 156.23 100.45 157.01 98.86C159.26 99.82 159.86 100.12 159.86 100.39C159.86 100.69 159.5 100.75 158.3 100.78C156.71 102.28 156.26 102.64 154.19 104.08C156.5 105.58 158.27 106.27 161.87 107.08V107.35C160.73 107.8 160.34 108.22 159.98 109.42C157.52 108.37 155.3 106.99 153.23 105.25C151.07 103.39 149.72 101.71 147.8 98.44C145.58 101.62 143.75 103.63 140.96 105.91C138.65 107.77 136.67 109 134.06 110.14L133.82 109.81C136.85 107.8 138.62 106.36 140.66 104.26C142.76 102.07 144.05 100.42 145.43 98.14H140.3C139.43 98.14 138.83 98.17 137.63 98.29L137.45 97.18C138.05 97.27 139.85 97.45 140.3 97.45ZM144.59 121.66H148.94C150.08 119.23 150.62 117.79 150.98 116.23C153.86 117.13 154.25 117.28 154.25 117.55C154.25 117.82 153.8 117.97 152.96 117.97C150.83 120.46 150.62 120.7 149.66 121.66H156.35C157.04 120.76 157.28 120.49 158.03 119.62C159.26 120.55 159.65 120.88 160.88 121.96C161 122.08 161.03 122.17 161.03 122.23C161.03 122.32 160.97 122.35 160.85 122.35H137C136.52 122.35 136.37 122.35 134.57 122.47L134.42 121.39C135.53 121.57 136.43 121.66 137.18 121.66H144.17C143.87 121.45 143.84 121.42 143.69 120.82C143.57 120.43 143.06 119.14 142.79 118.57C142.49 118 142.22 117.55 141.59 116.74L141.92 116.53C143.03 117.13 143.75 117.61 144.8 118.54C145.4 119.02 145.61 119.41 145.61 119.92C145.61 120.52 145.13 121.33 144.59 121.66ZM135.62 99.34L135.8 99.04C137.48 99.64 138.35 100.06 139.37 100.72C140.42 101.41 140.63 101.68 140.63 102.22C140.63 102.91 140.51 103.66 140.36 103.87C140.24 104.05 140.09 104.14 139.91 104.14C139.67 104.14 139.55 104.02 139.25 103.48C138.5 102.19 137.24 100.69 135.62 99.34ZM143.81 105.94H149.54C150.05 105.1 150.23 104.86 150.89 104.08C151.94 104.92 152.24 105.19 153.26 106.18C153.35 106.27 153.38 106.33 153.38 106.36C153.38 106.51 153.2 106.63 152.96 106.63H143.81C143.27 106.63 142.79 106.66 141.65 106.75L141.5 105.7C142.28 105.85 143.18 105.94 143.81 105.94ZM142.07 109.57H152.96C153.44 109 153.59 108.82 154.1 108.22C154.91 108.82 155.15 109 155.87 109.57C156.05 109.72 156.11 109.81 156.11 109.87C156.11 109.93 156.05 110.02 155.99 110.05C155.9 110.11 155.78 110.2 155.66 110.26C155.54 110.32 155.39 110.41 155.21 110.53C155.21 110.98 155.21 111.19 155.21 111.55C155.21 112.57 155.24 113.56 155.36 115.51C155.36 115.57 155.36 115.6 155.36 115.63C155.36 115.9 155.3 115.99 155.06 116.08C154.85 116.14 154.1 116.23 153.68 116.23C153.38 116.23 153.26 116.14 153.26 115.9V115.51H141.89V115.9C141.86 116.08 141.8 116.17 141.65 116.23C141.5 116.29 140.72 116.38 140.3 116.38C140.03 116.38 139.88 116.26 139.88 116.08C139.88 116.05 139.88 116.02 139.88 115.99C139.94 114.28 139.97 113.65 139.97 112.51C139.97 111.22 139.97 110.5 139.88 108.37C140.87 108.85 141.17 109 142.07 109.57ZM141.89 110.26V114.82H153.26V110.26H141.89ZM194.51 107.2H186.59C187.31 110.29 187.7 111.46 188.51 112.93C189.74 111.34 190.4 110.2 191.06 108.67C193.34 109.69 193.88 109.99 193.88 110.29C193.88 110.5 193.7 110.59 193.25 110.59H192.86L192.59 110.56C191.03 111.85 190.52 112.24 188.81 113.44C189.38 114.34 189.92 115 190.67 115.75C191.9 116.95 192.86 117.61 194.96 118.72V119.05C193.7 119.5 193.19 119.92 192.74 120.91C190.7 119.02 189.62 117.58 188.33 115.09C187.46 113.38 187.07 112.06 186.29 108.34L186.53 114.13C186.53 115.81 186.53 117.13 186.56 118.12C186.59 119.65 186.59 119.77 186.62 121.03C186.62 121.15 186.62 121.3 186.62 121.36C186.62 122.5 186.08 122.86 183.56 123.34C183.26 121.93 183.02 121.81 180.29 121.39V120.91C182.06 121.06 183.02 121.12 183.77 121.12C183.95 121.12 184.1 121.12 184.37 121.12C184.61 121.12 184.76 121.03 184.76 120.88V115.75C183.77 116.41 183.14 116.8 182.03 117.46C180.2 118.51 180.2 118.51 179.3 119.08C179.24 120.01 179.15 120.31 178.88 120.31C178.64 120.31 178.64 120.31 177.62 117.43C180.23 116.83 182.3 116.14 184.76 115.06V107.2H179.99C179 107.2 178.55 107.23 178.01 107.35L177.77 106.27C178.61 106.42 179.33 106.51 179.99 106.51H188.54C188.57 105.73 188.63 104.47 188.69 102.7H182.36C181.55 102.7 181.07 102.73 180.53 102.85L180.29 101.74C181.19 101.95 181.55 102.01 182.36 102.01H188.72L188.87 98.41H181.67C180.86 98.41 180.47 98.44 179.81 98.59L179.63 97.45C180.35 97.66 180.86 97.72 181.67 97.72H188.54C189.05 97.12 189.23 96.97 189.77 96.49C190.61 97 190.85 97.18 191.6 97.75C191.81 97.93 191.87 98.02 191.87 98.17C191.87 98.41 191.69 98.53 190.85 98.89C190.79 100.48 190.79 100.48 190.67 102.55C190.58 103.96 190.49 105.31 190.43 106.51H191.21C191.75 105.76 191.9 105.52 192.47 104.8C193.43 105.67 193.73 105.97 194.69 106.87C194.75 106.96 194.78 107.02 194.78 107.08C194.78 107.17 194.69 107.2 194.51 107.2ZM174.02 104.83V108.91H175.52C176 108.22 176.15 108.04 176.66 107.41C177.53 108.13 177.8 108.37 178.61 109.15C178.67 109.24 178.73 109.36 178.73 109.42C178.73 109.51 178.58 109.6 178.43 109.6H174.02V118.63C175.13 118.39 175.64 118.24 177.2 117.79L177.35 118.27C174.83 119.53 172.94 120.28 168.83 121.63C168.68 122.59 168.53 122.86 168.26 122.86C168.02 122.86 167.96 122.74 166.97 119.86C170.27 119.41 170.27 119.41 172.22 119.02V109.6H168.98C168.29 109.6 167.75 109.63 167.03 109.72L166.91 108.67C167.93 108.88 168.29 108.91 168.98 108.91H172.22V104.83H171.32C170.45 104.83 170.09 104.86 169.55 105.01L169.43 104.05C168.29 105.37 167.9 105.76 166.7 106.81L166.43 106.45C168.11 104.17 169.43 102.1 170.3 100.42C171.14 98.8 171.89 97 172.22 95.86C174.32 96.34 174.32 96.34 174.71 96.43C175.04 96.49 175.19 96.61 175.19 96.79C175.19 97.06 174.95 97.18 174.02 97.36L173.84 97.72C177.14 99.19 178.37 100.27 178.37 101.65C178.37 102.37 178.04 103 177.68 103C177.38 103 177.23 102.82 176.54 101.56C175.91 100.45 174.89 99.25 173.54 98.14C172.49 100.15 171.56 101.53 169.55 103.93C170.18 104.08 170.6 104.14 171.32 104.14H174.74C175.28 103.45 175.43 103.24 175.97 102.61C176.9 103.39 177.17 103.63 178.07 104.44C178.16 104.56 178.19 104.62 178.19 104.68C178.19 104.8 178.1 104.83 177.8 104.83H174.02ZM167.75 111.16L168.11 110.98C170 113.05 170.84 114.37 170.84 115.36C170.84 116.29 170.09 117.4 169.46 117.4C169.16 117.4 169.1 117.22 168.98 116.08C168.77 114.4 168.5 113.32 167.75 111.16ZM175.34 117.49L174.83 117.28C175.52 115.51 176.06 113.56 176.63 111.01C178.67 111.67 179.21 111.91 179.21 112.21C179.21 112.45 178.94 112.57 178.01 112.66C177.14 114.58 176.75 115.27 175.34 117.49ZM179.63 108.97L179.84 108.76C180.74 109.42 181.04 109.69 181.97 110.59C182.81 111.43 183.05 111.85 183.05 112.45C183.05 113.44 182.51 114.52 182.03 114.52C181.82 114.52 181.67 114.31 181.52 113.83C180.98 111.67 180.68 110.89 179.63 108.97Z" fill="#333333"/>
</svg>
