<svg width="188" height="132" viewBox="0 0 188 132" fill="none" xmlns="http://www.w3.org/2000/svg">
<path d="M3.3 58.02C4.82 57.94 5.86 57.6 6.42 57C6.98 56.36 7.28 55.5 7.32 54.42C7.4 53.3 7.44 52.04 7.44 50.64V24.72C7.44 23.92 7.46 23.16 7.5 22.44C7.54 21.68 7.58 21 7.62 20.4C6.9 20.44 6.18 20.48 5.46 20.52C4.74 20.56 4.02 20.6 3.3 20.64V18C5.42 17.96 7.6 17.94 9.84 17.94C12.08 17.9 14.36 17.88 16.68 17.88C20.56 17.88 23.82 18.32 26.46 19.2C29.1 20.08 31.12 21.38 32.52 23.1C33.92 24.82 34.68 26.96 34.8 29.52C34.88 31.08 34.64 32.72 34.08 34.44C33.56 36.12 32.56 37.72 31.08 39.24C29.64 40.72 27.6 41.92 24.96 42.84C22.32 43.76 18.94 44.22 14.82 44.22C14.66 44.22 14.36 44.22 13.92 44.22C13.48 44.22 13.06 44.2 12.66 44.16V52.86C12.66 53.94 12.64 54.88 12.6 55.68C12.6 56.44 12.56 57.08 12.48 57.6C13.12 57.56 13.74 57.52 14.34 57.48C14.94 57.44 15.54 57.42 16.14 57.42C16.78 57.38 17.4 57.34 18 57.3V60H3.3V58.02ZM12.66 41.7C13.42 41.78 14.06 41.84 14.58 41.88C15.14 41.88 15.8 41.88 16.56 41.88C18.84 41.88 20.92 41.44 22.8 40.56C24.68 39.64 26.18 38.34 27.3 36.66C28.42 34.98 28.98 32.98 28.98 30.66C28.98 28.78 28.68 27.18 28.08 25.86C27.48 24.5 26.62 23.42 25.5 22.62C24.42 21.78 23.12 21.18 21.6 20.82C20.08 20.42 18.4 20.22 16.56 20.22C15.16 20.22 14.18 20.52 13.62 21.12C13.1 21.72 12.8 22.56 12.72 23.64C12.68 24.68 12.66 25.92 12.66 27.36V41.7ZM45.0267 58.2C46.2667 58.2 47.1267 57.9 47.6067 57.3C48.0867 56.66 48.3667 55.8 48.4467 54.72C48.5267 53.6 48.5667 52.32 48.5667 50.88V37.2C48.5667 36.56 48.5867 35.96 48.6267 35.4C48.6667 34.8 48.7267 34.1 48.8067 33.3C48.0867 33.34 47.3667 33.38 46.6467 33.42C45.9667 33.46 45.2667 33.5 44.5467 33.54V31.02C46.3067 31.02 47.6667 30.94 48.6267 30.78C49.5867 30.62 50.3067 30.42 50.7867 30.18C51.3067 29.94 51.7067 29.68 51.9867 29.4H53.7267V53.64C53.7267 54.44 53.7067 55.16 53.6667 55.8C53.6667 56.4 53.6067 57.04 53.4867 57.72C54.1267 57.68 54.7467 57.66 55.3467 57.66C55.9867 57.62 56.6267 57.58 57.2667 57.54V60H45.0267V58.2ZM50.8467 23.46C50.0067 23.46 49.2667 23.12 48.6267 22.44C47.9867 21.76 47.6667 20.92 47.6667 19.92C47.6667 18.92 47.9867 18.08 48.6267 17.4C49.3067 16.68 50.0667 16.32 50.9067 16.32C51.8267 16.32 52.5867 16.68 53.1867 17.4C53.8267 18.08 54.1467 18.92 54.1467 19.92C54.1467 20.92 53.8067 21.76 53.1267 22.44C52.4867 23.12 51.7267 23.46 50.8467 23.46ZM87.8372 60.96C83.8372 60.96 80.2972 60.12 77.2172 58.44C74.1372 56.76 71.7372 54.34 70.0172 51.18C68.2972 48.02 67.4372 44.26 67.4372 39.9C67.4372 37.06 67.8572 34.3 68.6972 31.62C69.5772 28.9 70.8772 26.44 72.5972 24.24C74.3572 22.04 76.5372 20.3 79.1372 19.02C81.7772 17.7 84.8372 17.04 88.3172 17.04C89.7572 17.04 91.2172 17.18 92.6972 17.46C94.1772 17.7 95.5972 18.08 96.9572 18.6C98.3572 19.08 99.6172 19.66 100.737 20.34L100.497 17.46H103.797V31.2H101.637C101.477 28.68 100.797 26.56 99.5972 24.84C98.4372 23.08 96.9172 21.74 95.0372 20.82C93.1572 19.9 91.0572 19.44 88.7372 19.44C86.6172 19.44 84.6172 19.92 82.7372 20.88C80.8972 21.8 79.2572 23.12 77.8172 24.84C76.4172 26.52 75.3172 28.52 74.5172 30.84C73.7172 33.16 73.3172 35.72 73.3172 38.52C73.3172 42.28 73.9972 45.64 75.3572 48.6C76.7172 51.56 78.5972 53.88 80.9972 55.56C83.4372 57.24 86.2372 58.08 89.3972 58.08C90.4772 58.08 91.5972 57.98 92.7572 57.78C93.9572 57.58 95.1372 57.26 96.2972 56.82C97.4972 56.34 98.6172 55.76 99.6572 55.08V47.76C99.6572 46.8 99.6572 45.84 99.6572 44.88C99.6572 43.88 99.6572 42.9 99.6572 41.94C98.9772 41.98 98.2772 42.02 97.5572 42.06C96.8372 42.1 96.1372 42.14 95.4572 42.18V39.54H109.017V41.52C107.897 41.52 107.037 41.82 106.437 42.42C105.837 42.98 105.417 43.68 105.177 44.52C104.937 45.32 104.797 46.12 104.757 46.92C104.717 47.68 104.697 48.26 104.697 48.66V57.84H103.077C102.437 57.84 101.557 57.96 100.437 58.2C99.3172 58.44 98.0372 58.84 96.5972 59.4C95.3572 59.88 93.9172 60.26 92.2772 60.54C90.6372 60.82 89.1572 60.96 87.8372 60.96ZM119.562 60V58.02C121.082 57.94 122.122 57.6 122.682 57C123.242 56.36 123.542 55.5 123.582 54.42C123.662 53.3 123.702 52.04 123.702 50.64V24.72C123.702 23.92 123.722 23.16 123.762 22.44C123.802 21.68 123.842 21 123.882 20.4C123.162 20.44 122.442 20.48 121.722 20.52C121.002 20.56 120.282 20.6 119.562 20.64V18H133.062V19.98C131.582 20.02 130.542 20.36 129.942 21C129.382 21.64 129.062 22.5 128.982 23.58C128.942 24.66 128.922 25.92 128.922 27.36V53.1C128.922 54.18 128.902 55.1 128.862 55.86C128.862 56.62 128.822 57.26 128.742 57.78L139.962 57.6C142.482 57.56 144.382 56.76 145.662 55.2C146.982 53.64 147.642 51.1 147.642 47.58H149.682L149.322 60H119.562ZM162.744 76.26C161.504 76.26 160.444 75.96 159.564 75.36C158.684 74.76 158.244 73.84 158.244 72.6C158.244 71.88 158.484 71.22 158.964 70.62C159.444 70.02 160.064 69.72 160.824 69.72C161.784 69.68 162.424 69.98 162.744 70.62C163.104 71.26 163.284 71.82 163.284 72.3C163.284 72.42 163.284 72.54 163.284 72.66C163.284 72.82 163.264 72.98 163.224 73.14C163.344 73.22 163.564 73.26 163.884 73.26C164.364 73.26 164.884 73.06 165.444 72.66C166.004 72.26 166.504 71.68 166.944 70.92C167.464 70.04 168.064 68.72 168.744 66.96C169.464 65.2 170.264 63.1 171.144 60.66L161.784 40.62C160.744 38.38 159.984 36.6 159.504 35.28C159.064 33.96 158.764 32.98 158.604 32.34L155.724 32.46V30H168.144V31.8H167.904C166.224 31.92 165.304 32.56 165.144 33.72C164.984 34.84 165.444 36.56 166.524 38.88L173.544 53.94C174.464 51.38 175.344 48.86 176.184 46.38C177.024 43.86 177.864 41.36 178.704 38.88C179.024 38 179.344 37.1 179.664 36.18C180.024 35.22 180.364 34.38 180.684 33.66C181.044 32.9 181.364 32.42 181.644 32.22L177.504 32.46V30H186.924V31.8C185.444 32.36 184.324 33.3 183.564 34.62C182.844 35.9 182.104 37.56 181.344 39.6L173.844 60.54C172.644 63.9 171.544 66.74 170.544 69.06C169.544 71.42 168.444 73.2 167.244 74.4C166.044 75.64 164.544 76.26 162.744 76.26Z" fill="#EC87EF"/>
<path d="M35.82 102.1C36.09 101.95 36.18 101.92 36.42 101.92C37.29 101.92 38.04 102.22 39.81 103.27C40.89 103.24 44.52 102.91 49.17 102.43C51.78 102.13 52.11 102.07 52.65 101.83C52.92 101.68 53.01 101.65 53.16 101.65C53.52 101.65 54.06 102.01 54.72 102.67C55.41 103.36 55.71 103.81 55.71 104.17C55.71 104.38 55.65 104.5 55.47 104.74C55.17 105.13 55.05 105.43 54.75 106.39C54.45 107.38 54.3 108.04 53.49 111.46C52.95 113.8 52.95 113.8 52.74 114.55C53.76 115 54.24 115.51 54.24 116.08C54.24 116.44 54 116.71 53.67 116.71C53.46 116.71 53.46 116.71 52.2 116.5C51.45 116.41 49.65 116.32 47.94 116.32C45.6 116.32 43.65 116.44 41.04 116.77C41.07 117.52 41.07 117.55 41.07 117.88C41.07 118.69 40.92 118.96 40.41 118.96C39.93 118.96 39.51 118.54 39.06 117.61C38.79 117.07 38.64 116.56 38.64 116.23C38.64 116.08 38.64 116.02 38.76 115.63C38.82 115.36 38.85 114.46 38.85 113.23C38.85 109.72 38.4 105.61 37.89 104.26C37.5 103.24 36.9 102.61 35.82 102.1ZM40.17 104.56C40.32 107.62 40.68 112.63 40.95 115.33C43.2 115.24 49.14 114.82 50.85 114.64C51.54 111.55 52.41 106.36 52.71 103.57C52.32 103.54 52.17 103.54 51.9 103.54C51.3 103.54 49.74 103.66 45.99 103.93C42.75 104.2 41.73 104.32 40.17 104.56ZM69.63 111.64L69.33 111.25C71.49 109.45 73.5 107.11 75.63 103.93C76.86 102.1 77.61 100.54 77.61 99.88C77.61 99.49 77.49 99.25 77.04 98.86C76.68 98.5 76.68 98.5 76.32 98.32C75.99 98.14 75.99 98.14 75.78 98.02C76.05 97.9 76.17 97.87 76.35 97.87C76.98 97.87 78 98.2 78.81 98.68C79.77 99.22 80.22 99.73 80.22 100.21C80.22 100.57 80.19 100.6 78.6 102.91C78.99 103.03 79.17 103.06 79.41 103.06C79.98 103.06 81.42 102.82 82.98 102.43C84.24 102.13 84.72 101.98 85.35 101.62C85.59 101.47 85.68 101.44 85.86 101.44C86.58 101.44 88.29 103 88.29 103.66C88.29 103.9 88.17 104.08 87.84 104.41C87.3 104.89 87.15 105.13 86.4 106.54C83.67 111.64 81.39 114.55 77.55 117.85C74.97 120.01 72.45 121.6 70.11 122.53L69.9 122.11C72.3 120.61 74.1 119.17 76.53 116.74C80.16 113.11 82.98 109.06 84.72 104.86C85.02 104.2 85.2 103.57 85.2 103.33C85.2 103.21 85.11 103.12 84.93 103.12C84.48 103.12 82.62 103.57 81.12 104.08C80.58 104.26 80.4 104.29 80.13 104.29C79.5 104.29 78.87 103.99 78.27 103.42C75.84 106.84 72.9 109.63 69.63 111.64ZM86.49 97.27L86.88 96.85C87.99 97.48 88.8 98.05 89.55 98.71C90.63 99.7 91.05 100.39 91.05 101.11C91.05 101.83 90.63 102.37 90.12 102.37C89.73 102.37 89.73 102.37 88.8 100.42C88.26 99.37 87.3 98.05 86.49 97.27ZM89.67 95.53L89.97 95.11C91.05 95.62 91.92 96.13 92.85 96.85C93.99 97.72 94.38 98.32 94.38 99.16C94.38 99.88 94.08 100.39 93.63 100.39C93.36 100.39 93.18 100.24 92.94 99.79C91.89 97.9 91.32 97.15 89.67 95.53ZM96.4605 114.37L96.2205 113.95C99.9705 111.94 103.991 108.91 107.501 105.43C110.471 102.52 112.391 100.09 112.391 99.22C112.391 98.65 111.911 98.17 110.711 97.51C111.041 97.39 111.101 97.39 111.311 97.39C112.181 97.39 112.931 97.66 113.891 98.29C114.911 98.98 115.451 99.67 115.451 100.24C115.451 100.51 115.421 100.57 114.251 101.56C113.951 101.8 113.951 101.8 111.821 103.84C109.721 105.85 109.541 106 108.251 107.08C109.421 107.95 109.931 108.4 110.081 108.76C110.201 109.06 110.261 110.47 110.291 113.17C110.321 115.27 110.381 117.19 110.441 118.9C110.441 119.56 110.471 120.43 110.471 120.61C110.471 121.66 110.261 122.11 109.781 122.11C109.091 122.11 107.741 120.46 107.741 119.59C107.741 119.38 107.741 119.38 107.921 118.81C108.191 118.06 108.461 114.34 108.461 111.43C108.461 109.96 108.401 109.06 108.281 108.58C108.191 108.28 108.071 108.13 107.621 107.65C105.521 109.33 103.361 110.86 101.861 111.76C100.181 112.75 98.0205 113.8 96.4605 114.37ZM131.501 101.35L131.711 100.99C134.591 101.71 136.331 102.4 137.501 103.24C138.191 103.72 138.521 104.38 138.521 105.28C138.521 106.27 138.191 106.96 137.681 106.96C137.351 106.96 137.201 106.81 136.391 105.76C134.921 103.81 133.841 102.82 131.501 101.35ZM152.561 102.43L153.041 102.7C151.541 105.52 149.711 107.89 146.741 110.77C143.981 113.44 142.121 114.94 138.311 117.61C136.901 118.6 136.751 118.72 136.541 118.99C136.061 119.56 135.881 119.71 135.491 119.71C134.261 119.71 131.981 116.83 131.981 115.3C131.981 115.12 132.011 115 132.131 114.7C132.731 115.6 132.791 115.66 133.211 116.02C133.661 116.44 134.081 116.65 134.411 116.65C134.921 116.65 135.851 116.26 137.321 115.39C140.681 113.44 141.851 112.6 144.491 110.44C148.181 107.44 149.981 105.61 152.561 102.43Z" fill="#333333"/>
</svg>
