<svg width="123" height="41" viewBox="0 0 123 41" fill="none" xmlns="http://www.w3.org/2000/svg">
<path d="M0.2 28.68C1.21333 28.6267 1.90667 28.4 2.28 28C2.65333 27.5733 2.85333 27 2.88 26.28C2.93333 25.5333 2.96 24.6933 2.96 23.76V6.48C2.96 5.94667 2.97333 5.44 3 4.96C3.02667 4.45333 3.05333 4 3.08 3.6C2.6 3.62667 2.12 3.65333 1.64 3.68C1.16 3.70667 0.68 3.73333 0.2 3.76V2C1.61333 1.97333 3.06667 1.96 4.56 1.96C6.05333 1.93333 7.57333 1.92 9.12 1.92C11.7067 1.92 13.88 2.21333 15.64 2.8C17.4 3.38667 18.7467 4.25333 19.68 5.4C20.6133 6.54667 21.12 7.97333 21.2 9.68C21.2533 10.72 21.0933 11.8133 20.72 12.96C20.3733 14.08 19.7067 15.1467 18.72 16.16C17.76 17.1467 16.4 17.9467 14.64 18.56C12.88 19.1733 10.6267 19.48 7.88 19.48C7.77333 19.48 7.57333 19.48 7.28 19.48C6.98667 19.48 6.70667 19.4667 6.44 19.44V25.24C6.44 25.96 6.42667 26.5867 6.4 27.12C6.4 27.6267 6.37333 28.0533 6.32 28.4C6.74667 28.3733 7.16 28.3467 7.56 28.32C7.96 28.2933 8.36 28.28 8.76 28.28C9.18667 28.2533 9.6 28.2267 10 28.2V30H0.2V28.68ZM6.44 17.8C6.94667 17.8533 7.37333 17.8933 7.72 17.92C8.09333 17.92 8.53333 17.92 9.04 17.92C10.56 17.92 11.9467 17.6267 13.2 17.04C14.4533 16.4267 15.4533 15.56 16.2 14.44C16.9467 13.32 17.32 11.9867 17.32 10.44C17.32 9.18667 17.12 8.12 16.72 7.24C16.32 6.33333 15.7467 5.61333 15 5.08C14.28 4.52 13.4133 4.12 12.4 3.88C11.3867 3.61333 10.2667 3.48 9.04 3.48C8.10667 3.48 7.45333 3.68 7.08 4.08C6.73333 4.48 6.53333 5.04 6.48 5.76C6.45333 6.45333 6.44 7.28 6.44 8.24V17.8ZM28.0178 28.8C28.8445 28.8 29.4178 28.6 29.7378 28.2C30.0578 27.7733 30.2445 27.2 30.2978 26.48C30.3511 25.7333 30.3778 24.88 30.3778 23.92V14.8C30.3778 14.3733 30.3911 13.9733 30.4178 13.6C30.4445 13.2 30.4845 12.7333 30.5378 12.2C30.0578 12.2267 29.5778 12.2533 29.0978 12.28C28.6445 12.3067 28.1778 12.3333 27.6978 12.36V10.68C28.8711 10.68 29.7778 10.6267 30.4178 10.52C31.0578 10.4133 31.5378 10.28 31.8578 10.12C32.2045 9.96 32.4711 9.78667 32.6578 9.6H33.8178V25.76C33.8178 26.2933 33.8045 26.7733 33.7778 27.2C33.7778 27.6 33.7378 28.0267 33.6578 28.48C34.0845 28.4533 34.4978 28.44 34.8978 28.44C35.3245 28.4133 35.7511 28.3867 36.1778 28.36V30H28.0178V28.8ZM31.8978 5.64C31.3378 5.64 30.8445 5.41333 30.4178 4.96C29.9911 4.50667 29.7778 3.94667 29.7778 3.28C29.7778 2.61333 29.9911 2.05333 30.4178 1.6C30.8711 1.12 31.3778 0.879998 31.9378 0.879998C32.5511 0.879998 33.0578 1.12 33.4578 1.6C33.8845 2.05333 34.0978 2.61333 34.0978 3.28C34.0978 3.94667 33.8711 4.50667 33.4178 4.96C32.9911 5.41333 32.4845 5.64 31.8978 5.64ZM56.5581 30.64C53.8915 30.64 51.5315 30.08 49.4781 28.96C47.4248 27.84 45.8248 26.2267 44.6781 24.12C43.5315 22.0133 42.9581 19.5067 42.9581 16.6C42.9581 14.7067 43.2381 12.8667 43.7981 11.08C44.3848 9.26667 45.2515 7.62667 46.3981 6.16C47.5715 4.69333 49.0248 3.53333 50.7581 2.68C52.5181 1.8 54.5581 1.36 56.8781 1.36C57.8381 1.36 58.8115 1.45333 59.7981 1.64C60.7848 1.8 61.7315 2.05333 62.6381 2.4C63.5715 2.72 64.4115 3.10667 65.1581 3.56L64.9981 1.64H67.1981V10.8H65.7581C65.6515 9.12 65.1981 7.70667 64.3981 6.56C63.6248 5.38666 62.6115 4.49333 61.3581 3.88C60.1048 3.26666 58.7048 2.96 57.1581 2.96C55.7448 2.96 54.4115 3.28 53.1581 3.92C51.9315 4.53333 50.8381 5.41333 49.8781 6.56C48.9448 7.68 48.2115 9.01333 47.6781 10.56C47.1448 12.1067 46.8781 13.8133 46.8781 15.68C46.8781 18.1867 47.3315 20.4267 48.2381 22.4C49.1448 24.3733 50.3981 25.92 51.9981 27.04C53.6248 28.16 55.4915 28.72 57.5981 28.72C58.3181 28.72 59.0648 28.6533 59.8381 28.52C60.6381 28.3867 61.4248 28.1733 62.1981 27.88C62.9981 27.56 63.7448 27.1733 64.4381 26.72V21.84C64.4381 21.2 64.4381 20.56 64.4381 19.92C64.4381 19.2533 64.4381 18.6 64.4381 17.96C63.9848 17.9867 63.5181 18.0133 63.0381 18.04C62.5581 18.0667 62.0915 18.0933 61.6381 18.12V16.36H70.6781V17.68C69.9315 17.68 69.3581 17.88 68.9581 18.28C68.5581 18.6533 68.2781 19.12 68.1181 19.68C67.9581 20.2133 67.8648 20.7467 67.8381 21.28C67.8115 21.7867 67.7981 22.1733 67.7981 22.44V28.56H66.7181C66.2915 28.56 65.7048 28.64 64.9581 28.8C64.2115 28.96 63.3581 29.2267 62.3981 29.6C61.5715 29.92 60.6115 30.1733 59.5181 30.36C58.4248 30.5467 57.4381 30.64 56.5581 30.64ZM77.7078 30V28.68C78.7211 28.6267 79.4145 28.4 79.7878 28C80.1611 27.5733 80.3611 27 80.3878 26.28C80.4411 25.5333 80.4678 24.6933 80.4678 23.76V6.48C80.4678 5.94667 80.4811 5.44 80.5078 4.96C80.5345 4.45333 80.5611 4 80.5878 3.6C80.1078 3.62667 79.6278 3.65333 79.1478 3.68C78.6678 3.70667 78.1878 3.73333 77.7078 3.76V2H86.7078V3.32C85.7211 3.34667 85.0278 3.57333 84.6278 4C84.2545 4.42667 84.0411 5 83.9878 5.72C83.9611 6.44 83.9478 7.28 83.9478 8.24V25.4C83.9478 26.12 83.9345 26.7333 83.9078 27.24C83.9078 27.7467 83.8811 28.1733 83.8278 28.52L91.3078 28.4C92.9878 28.3733 94.2545 27.84 95.1078 26.8C95.9878 25.76 96.4278 24.0667 96.4278 21.72H97.7878L97.5478 30H77.7078ZM106.496 40.84C105.67 40.84 104.963 40.64 104.376 40.24C103.79 39.84 103.496 39.2267 103.496 38.4C103.496 37.92 103.656 37.48 103.976 37.08C104.296 36.68 104.71 36.48 105.216 36.48C105.856 36.4533 106.283 36.6533 106.496 37.08C106.736 37.5067 106.856 37.88 106.856 38.2C106.856 38.28 106.856 38.36 106.856 38.44C106.856 38.5467 106.843 38.6533 106.816 38.76C106.896 38.8133 107.043 38.84 107.256 38.84C107.576 38.84 107.923 38.7067 108.296 38.44C108.67 38.1733 109.003 37.7867 109.296 37.28C109.643 36.6933 110.043 35.8133 110.496 34.64C110.976 33.4667 111.51 32.0667 112.096 30.44L105.856 17.08C105.163 15.5867 104.656 14.4 104.336 13.52C104.043 12.64 103.843 11.9867 103.736 11.56L101.816 11.64V10H110.096V11.2H109.936C108.816 11.28 108.203 11.7067 108.096 12.48C107.99 13.2267 108.296 14.3733 109.016 15.92L113.696 25.96C114.31 24.2533 114.896 22.5733 115.456 20.92C116.016 19.24 116.576 17.5733 117.136 15.92C117.35 15.3333 117.563 14.7333 117.776 14.12C118.016 13.48 118.243 12.92 118.456 12.44C118.696 11.9333 118.91 11.6133 119.096 11.48L116.336 11.64V10H122.616V11.2C121.63 11.5733 120.883 12.2 120.376 13.08C119.896 13.9333 119.403 15.04 118.896 16.4L113.896 30.36C113.096 32.6 112.363 34.4933 111.696 36.04C111.03 37.6133 110.296 38.8 109.496 39.6C108.696 40.4267 107.696 40.84 106.496 40.84Z" fill="#EC87EF"/>
</svg>
